<svg id="レイヤー_1" data-name="レイヤー 1" xmlns="http://www.w3.org/2000/svg" viewBox="0 0 1000 1000"><defs><style>.cls-1{fill:#fff;}</style></defs><title>megrorb-vi</title><path class="cls-1" d="M735.74,237.64A123.41,123.41,0,0,0,627.78,419l94.1,205.12a17.52,17.52,0,0,0,33.55.56l92.1-209.38A123.41,123.41,0,0,0,735.74,237.64Zm1.58,199.48a76.27,76.27,0,0,1-74.65-58L811,378A76.27,76.27,0,0,1,737.32,437.12ZM662.4,343.9a76.26,76.26,0,0,1,148.36-1.12ZM1,719.51,0,587.57l20.52-.16,18.95,56.17,6.6,21.27h.81l6.07-21.37L71.2,587l20.51-.16,1,131.95-16.09.13-.52-66q0-4.83.21-11.17T77.07,629q.45-6.44.81-12.48t.73-10.26H78l-7.24,25.8-18.5,52-12.07.09L21.27,632.46l-7.85-25.68H13Q13.46,611,14,617t1,12.46q.45,6.44.8,12.77t.39,11.16l.52,66Zm175.81,1a60.77,60.77,0,0,1-20.64-3.26,47.92,47.92,0,0,1-16.77-9.93A47.42,47.42,0,0,1,128,691.26a54.6,54.6,0,0,1-4.29-21.79,52.83,52.83,0,0,1,4-21.35,49.16,49.16,0,0,1,10.94-16.18,48.44,48.44,0,0,1,15.81-10.28,53.42,53.42,0,0,1,37.61-.5,39,39,0,0,1,14.15,9.24,40.52,40.52,0,0,1,8.86,14.41,55.32,55.32,0,0,1,3.16,18.68q0,2.82-.16,5.43a39.45,39.45,0,0,1-.57,4.63l-77,.61q1.74,16.69,12.37,24.95t25.91,8.14a47.85,47.85,0,0,0,16-2.64,67.17,67.17,0,0,0,13.73-6.85l6.12,10.81A78.06,78.06,0,0,1,198,717,61.57,61.57,0,0,1,176.85,720.55Zm-3.12-89.49a33.63,33.63,0,0,0-11.55,2.1,32.72,32.72,0,0,0-9.91,5.81,31.49,31.49,0,0,0-7.37,9.41,41.59,41.59,0,0,0-4.12,12.91l62.35-.49q-1.13-15.08-8.93-22.46T173.73,631.06Zm108.85,131.3q-21.52.17-33.34-6.78t-11.93-20a19.23,19.23,0,0,1,4-11.5,39.19,39.19,0,0,1,11.89-10.35v-.8a23.12,23.12,0,0,1-7.09-6q-3-3.8-3.09-10a18.31,18.31,0,0,1,2.94-9.58,29,29,0,0,1,8.58-8.82v-.8a32,32,0,0,1-8.63-10.09,30.8,30.8,0,0,1-3.64-15.16,32.78,32.78,0,0,1,3-14.51,33.74,33.74,0,0,1,8.26-11,38.38,38.38,0,0,1,12.11-7.14,43.11,43.11,0,0,1,14.76-2.63,41,41,0,0,1,14.5,2.3l40.43-.32.11,13.48-25.34.2a29.74,29.74,0,0,1,5.9,8.6,26.1,26.1,0,0,1,2.5,11,32.86,32.86,0,0,1-2.81,14.1,30.51,30.51,0,0,1-8,10.62,36.22,36.22,0,0,1-12,6.73A46.4,46.4,0,0,1,281,686.34a39.9,39.9,0,0,1-8.15-.84,40.52,40.52,0,0,1-8.37-2.65q-7.61,4.89-7.55,11.32a9,9,0,0,0,5.4,8.51q5.35,2.67,15,2.6l21.92-.17q18.9-.15,28.1,5t9.29,17.63a24.68,24.68,0,0,1-3.72,13.1,35,35,0,0,1-10.78,10.95,61,61,0,0,1-17,7.58A83.54,83.54,0,0,1,282.58,762.36Zm1.11-12.08A67,67,0,0,0,299,748.55a44.76,44.76,0,0,0,11.63-4.42,22.24,22.24,0,0,0,7.29-6.29,12.48,12.48,0,0,0,2.46-7.36q-.06-7-5.61-9.41t-16.81-2.28l-19.11.15q-4.22,0-7.95-.24a31.72,31.72,0,0,1-6.95-1.25q-7,3.87-9.69,8a15,15,0,0,0-2.65,8.37q.06,7.64,8.24,12.11T283.69,750.28Zm-2.8-75a22.3,22.3,0,0,0,15.94-6.36q6.49-6.28,6.4-16.95a23.25,23.25,0,0,0-1.88-9.24,22.87,22.87,0,0,0-4.88-7.2,21.83,21.83,0,0,0-7.18-4.67,23.25,23.25,0,0,0-17.5.14,21.77,21.77,0,0,0-7.1,4.78,22.87,22.87,0,0,0-4.77,7.28,23.25,23.25,0,0,0-1.74,9.27q.08,10.66,6.77,16.84A22.39,22.39,0,0,0,280.89,675.28Zm116.41,43.54q-17.7.14-25.92-9.75T363,679.66l-.48-60.74,16.69-.13.46,58.53q.11,13.88,5.29,20.58t17.45,6.6A28,28,0,0,0,417.66,700q6.8-4.37,15-13.9l-.53-67.78,16.49-.13.77,97.75-13.48.11L434.35,699h-.81a70.38,70.38,0,0,1-16.08,14.21A37.52,37.52,0,0,1,397.29,718.81Zm92.3-3.14-.77-97.75,13.68-.11,1.59,23.12h.6a58.92,58.92,0,0,1,18.66-18.86,46.64,46.64,0,0,1,24.79-7,52.36,52.36,0,0,1,10.06.83,38.67,38.67,0,0,1,9.28,3l-3.71,14.31a87.86,87.86,0,0,0-8.77-2.55,43.83,43.83,0,0,0-9.36-.73,39.5,39.5,0,0,0-21.17,6.5q-10.11,6.41-18.84,21.77l.45,57.32ZM630.41,717A50.14,50.14,0,0,1,612,713.71a45,45,0,0,1-15.46-9.84,47.58,47.58,0,0,1-10.69-16,56.49,56.49,0,0,1-4.09-21.59,57.07,57.07,0,0,1,3.75-21.85,48.79,48.79,0,0,1,10.43-16.28A44.41,44.41,0,0,1,611.22,618a51.25,51.25,0,0,1,36.81-.29,44.43,44.43,0,0,1,15.47,9.94,48.82,48.82,0,0,1,10.69,16.11,57.07,57.07,0,0,1,4.09,21.79,56.49,56.49,0,0,1-3.75,21.65,47.61,47.61,0,0,1-10.43,16.17,45,45,0,0,1-15.31,10.08A50.15,50.15,0,0,1,630.41,717Zm-.11-13.68A29.48,29.48,0,0,0,643,700.49a28.77,28.77,0,0,0,9.8-7.72A34.88,34.88,0,0,0,659.09,681a49.54,49.54,0,0,0,2.09-15.3,50.5,50.5,0,0,0-2.33-15.37,35.88,35.88,0,0,0-6.43-11.92,28.3,28.3,0,0,0-9.92-7.67,31.4,31.4,0,0,0-25.54.2,28.29,28.29,0,0,0-9.8,7.82,35.77,35.77,0,0,0-6.24,12,50.38,50.38,0,0,0-2.09,15.4,49.42,49.42,0,0,0,2.33,15.27,34.78,34.78,0,0,0,6.43,11.72,28.76,28.76,0,0,0,9.92,7.57A29.46,29.46,0,0,0,630.3,703.31Zm174.39,9.79-.77-97.75,13.68-.11,1.59,23.12h.6a58.92,58.92,0,0,1,18.66-18.86,46.64,46.64,0,0,1,24.79-7,52.36,52.36,0,0,1,10.06.83,38.67,38.67,0,0,1,9.28,3l-3.71,14.31a87.86,87.86,0,0,0-8.77-2.55,43.83,43.83,0,0,0-9.36-.73,39.5,39.5,0,0,0-21.17,6.5q-10.11,6.41-18.84,21.77l.45,57.32Zm151.47,1.22a38.5,38.5,0,0,1-15.21-3.4,56.78,56.78,0,0,1-15.26-9.63h-.6l-1.32,10.87-13.27.1-1.13-143.21,16.49-.13.31,39-.46,18.91h.6a50.88,50.88,0,0,1,15.3-11,42.25,42.25,0,0,1,34.89-.78,34.18,34.18,0,0,1,12.85,10,45.25,45.25,0,0,1,7.87,15.63,74.32,74.32,0,0,1,2.78,20.39,64.42,64.42,0,0,1-3.44,22.35,51,51,0,0,1-9.62,16.77,41.23,41.23,0,0,1-30.76,14.12Zm-2.72-13.86a26.18,26.18,0,0,0,11.84-2.81,28.7,28.7,0,0,0,9.39-7.72,35.4,35.4,0,0,0,6.14-12.22,55.71,55.71,0,0,0,2.08-16.31,62.43,62.43,0,0,0-1.72-14.67,33.24,33.24,0,0,0-5-11.33,22.71,22.71,0,0,0-8.61-7.27,27.63,27.63,0,0,0-12.49-2.52,32,32,0,0,0-13.75,3.63,56,56,0,0,0-14.9,11.28l.38,48.67A44.87,44.87,0,0,0,941,697.94,36.83,36.83,0,0,0,953.44,700.46ZM713,681.07a26.77,26.77,0,0,1,52.52,0Zm52.6,13.54a25.32,25.32,0,0,1-7,13.54,27.74,27.74,0,0,1-38.26.3A25.36,25.36,0,0,1,713,694.61Z"/></svg>