<svg id="レイヤー_1" data-name="レイヤー 1" xmlns="http://www.w3.org/2000/svg" viewBox="0 0 1000 1000"><defs><style>.cls-1{fill:#fff;}</style></defs><title>megrorb-vi</title><path class="cls-1" d="M198.64,974.12,198,894.43l12.39-.1,11.44,33.93,4,12.85h.49L230,928.19l11-34.1,12.39-.1.63,79.69-9.72.08L244,933.92q0-2.92.13-6.74t.43-7.72q.27-3.89.49-7.54t.44-6.2h-.36l-4.37,15.58-11.17,31.43-7.29.06-11.42-31.26L206.12,906h-.24q.26,2.55.6,6.19t.61,7.53q.27,3.89.49,7.71t.23,6.74l.31,39.85Z"/><path class="cls-1" d="M304.82,974.74a36.7,36.7,0,0,1-12.47-2,28.94,28.94,0,0,1-10.13-6,28.64,28.64,0,0,1-6.88-9.73,33,33,0,0,1-2.59-13.16,31.91,31.91,0,0,1,2.39-12.9,29.69,29.69,0,0,1,6.6-9.77,29.25,29.25,0,0,1,9.55-6.21,32.27,32.27,0,0,1,22.72-.3,23.54,23.54,0,0,1,8.55,5.58,24.48,24.48,0,0,1,5.35,8.7,33.41,33.41,0,0,1,1.91,11.28q0,1.7-.1,3.28a23.82,23.82,0,0,1-.34,2.8l-46.53.37q1,10.08,7.47,15.07A24.39,24.39,0,0,0,306,966.72a28.9,28.9,0,0,0,9.65-1.59,40.57,40.57,0,0,0,8.29-4.13l3.7,6.53a47.15,47.15,0,0,1-10,5.06A37.19,37.19,0,0,1,304.82,974.74Zm-1.88-54a20.31,20.31,0,0,0-7,1.27,19.76,19.76,0,0,0-6,3.51,19,19,0,0,0-4.45,5.68A25.12,25.12,0,0,0,283,939l37.66-.3q-.68-9.11-5.39-13.56T302.94,920.7Z"/><path class="cls-1" d="M368.68,1000q-13,.1-20.14-4.09t-7.2-12.09a11.61,11.61,0,0,1,2.44-6.94,23.67,23.67,0,0,1,7.18-6.25v-.49a14,14,0,0,1-4.28-3.61,9.52,9.52,0,0,1-1.87-6.06,11.06,11.06,0,0,1,1.78-5.78,17.51,17.51,0,0,1,5.18-5.33v-.49a19.33,19.33,0,0,1-5.21-6.09,18.6,18.6,0,0,1-2.2-9.15,19.8,19.8,0,0,1,1.81-8.76,20.38,20.38,0,0,1,5-6.66,23.18,23.18,0,0,1,7.32-4.31,26,26,0,0,1,8.92-1.59,24.78,24.78,0,0,1,8.76,1.39l24.42-.19.06,8.14-15.31.12a18,18,0,0,1,3.56,5.2,15.76,15.76,0,0,1,1.51,6.67,19.85,19.85,0,0,1-1.69,8.52,18.43,18.43,0,0,1-4.81,6.42,21.88,21.88,0,0,1-7.26,4.07,28,28,0,0,1-8.92,1.47,24.1,24.1,0,0,1-4.92-.51,24.47,24.47,0,0,1-5.05-1.6q-4.59,3-4.56,6.84a5.43,5.43,0,0,0,3.26,5.14q3.23,1.62,9.06,1.57l13.24-.1q11.42-.09,17,3t5.61,10.65a14.91,14.91,0,0,1-2.25,7.91,21.14,21.14,0,0,1-6.51,6.61,36.83,36.83,0,0,1-10.29,4.58A50.46,50.46,0,0,1,368.68,1000Zm.67-7.29a40.44,40.44,0,0,0,9.22-1,27,27,0,0,0,7-2.67,13.43,13.43,0,0,0,4.4-3.8,7.54,7.54,0,0,0,1.48-4.45q0-4.25-3.39-5.68T378,973.68l-11.54.09q-2.55,0-4.8-.15a19.16,19.16,0,0,1-4.2-.76,16.07,16.07,0,0,0-5.85,4.84,9.09,9.09,0,0,0-1.6,5.05q0,4.62,5,7.31T369.35,992.7Zm-1.69-45.3a13.47,13.47,0,0,0,9.63-3.84q3.92-3.8,3.87-10.24a14,14,0,0,0-1.14-5.58,13.81,13.81,0,0,0-2.95-4.35,13.19,13.19,0,0,0-4.34-2.82,14,14,0,0,0-10.57.08,13.15,13.15,0,0,0-4.29,2.89,13.81,13.81,0,0,0-2.88,4.4,14,14,0,0,0-1,5.6Q354,940,358,943.71A13.52,13.52,0,0,0,367.66,947.4Z"/><path class="cls-1" d="M438,973.7q-10.69.08-15.66-5.89T417.25,950L417,913.36l10.08-.08.28,35.35q.07,8.38,3.2,12.43t10.54,4a16.9,16.9,0,0,0,9.21-2.68,44,44,0,0,0,9-8.39L459,913l10-.08.46,59-8.14.06-.93-10.32h-.49a42.51,42.51,0,0,1-9.71,8.58A22.66,22.66,0,0,1,438,973.7Z"/><path class="cls-1" d="M493.71,971.8l-.46-59,8.26-.06,1,14h.36a35.59,35.59,0,0,1,11.27-11.39,28.17,28.17,0,0,1,15-4.25,31.62,31.62,0,0,1,6.08.5,23.35,23.35,0,0,1,5.6,1.84L538.52,922a53.06,53.06,0,0,0-5.3-1.54,26.47,26.47,0,0,0-5.65-.44A23.86,23.86,0,0,0,514.78,924q-6.11,3.87-11.38,13.15l.27,34.62Z"/><path class="cls-1" d="M578.76,972.59a30.29,30.29,0,0,1-11.13-2,27.19,27.19,0,0,1-9.34-5.94,28.74,28.74,0,0,1-6.45-9.67,34.12,34.12,0,0,1-2.47-13,34.47,34.47,0,0,1,2.27-13.2,29.47,29.47,0,0,1,6.3-9.83,26.82,26.82,0,0,1,9.25-6.15,31,31,0,0,1,22.23-.17,26.84,26.84,0,0,1,9.34,6,29.48,29.48,0,0,1,6.45,9.73,34.47,34.47,0,0,1,2.47,13.16,34.12,34.12,0,0,1-2.27,13.08,28.75,28.75,0,0,1-6.3,9.77,27.2,27.2,0,0,1-9.25,6.09A30.29,30.29,0,0,1,578.76,972.59Zm-.06-8.26a17.81,17.81,0,0,0,7.7-1.7,17.38,17.38,0,0,0,5.92-4.66,21.07,21.07,0,0,0,3.77-7.14,29.92,29.92,0,0,0,1.26-9.24,30.5,30.5,0,0,0-1.41-9.28,21.67,21.67,0,0,0-3.88-7.2,17.09,17.09,0,0,0-6-4.63,19,19,0,0,0-15.43.12,17.09,17.09,0,0,0-5.92,4.72,21.61,21.61,0,0,0-3.77,7.26,30.43,30.43,0,0,0-1.26,9.3,29.85,29.85,0,0,0,1.41,9.22,21,21,0,0,0,3.88,7.08,17.37,17.37,0,0,0,6,4.57A17.79,17.79,0,0,0,578.7,964.33Z"/><path class="cls-1" d="M684,970.24l-.46-59,8.26-.06,1,14h.36a35.59,35.59,0,0,1,11.27-11.39,28.17,28.17,0,0,1,15-4.25,31.62,31.62,0,0,1,6.08.5,23.35,23.35,0,0,1,5.6,1.84l-2.24,8.64a53.06,53.06,0,0,0-5.3-1.54,26.47,26.47,0,0,0-5.65-.44,23.86,23.86,0,0,0-12.79,3.93q-6.11,3.87-11.38,13.15l.27,34.62Z"/><path class="cls-1" d="M775.51,971a23.25,23.25,0,0,1-9.19-2.05,34.29,34.29,0,0,1-9.22-5.82h-.36l-.8,6.57-8,.06-.68-86.5,10-.08.19,23.57-.28,11.42h.36a30.73,30.73,0,0,1,9.24-6.63,25.52,25.52,0,0,1,21.08-.47,20.64,20.64,0,0,1,7.76,6,27.33,27.33,0,0,1,4.75,9.44A44.89,44.89,0,0,1,802,938.82a38.91,38.91,0,0,1-2.08,13.5,30.79,30.79,0,0,1-5.81,10.13A24.9,24.9,0,0,1,775.51,971Zm-1.65-8.37a15.81,15.81,0,0,0,7.15-1.7,17.34,17.34,0,0,0,5.67-4.66,21.38,21.38,0,0,0,3.71-7.38,33.65,33.65,0,0,0,1.26-9.85,37.71,37.71,0,0,0-1-8.86,20.08,20.08,0,0,0-3-6.84,13.72,13.72,0,0,0-5.2-4.39,16.69,16.69,0,0,0-7.54-1.52,19.34,19.34,0,0,0-8.31,2.19,33.8,33.8,0,0,0-9,6.81l.23,29.4a27.1,27.1,0,0,0,8.61,5.28A22.25,22.25,0,0,0,773.87,962.61Z"/><path class="cls-1" d="M660.37,950.9a16.17,16.17,0,0,0-31.72,0Z"/><path class="cls-1" d="M628.62,959.08a15.32,15.32,0,0,0,4.44,8.36,16.75,16.75,0,0,0,23.11-.18,15.3,15.3,0,0,0,4.26-8.18Z"/><path class="cls-1" d="M500,0C365,0,255.65,109.4,255.65,244.35a243.29,243.29,0,0,0,27.7,113.11L466.54,765.19A34.7,34.7,0,0,0,533,766.83L718.65,353.56a243.33,243.33,0,0,0,25.7-109.21C744.35,109.4,635,0,500,0Zm0,395.11A151.07,151.07,0,0,1,353.08,279l293.87.09A151.07,151.07,0,0,1,500,395.11ZM353.08,209.31a151.05,151.05,0,0,1,293.87.09Z"/></svg>