<svg id="レイヤー_1" data-name="レイヤー 1" xmlns="http://www.w3.org/2000/svg" xmlns:xlink="http://www.w3.org/1999/xlink" viewBox="0 0 1000 1000"><defs><style>.cls-1{fill:url(#名称未設定グラデーション_131);}</style><linearGradient id="名称未設定グラデーション_131" x1="213.89" y1="500" x2="831.94" y2="500" gradientUnits="userSpaceOnUse"><stop offset="0" stop-color="#9e005d"/><stop offset="1" stop-color="#ed1c24"/></linearGradient></defs><title>megrorb-vi</title><path class="cls-1" d="M500,0C329.33,0,191,138.35,191,309a307.69,307.69,0,0,0,35,143L457.68,967.72a43.88,43.88,0,0,0,84,2.07L776.52,447.13A307.73,307.73,0,0,0,809,309C809,138.35,670.67,0,500,0Zm0,499.69c-90.26,0-165.9-62.62-185.84-146.79l371.65.12C665.86,437.13,590.25,499.69,500,499.69Zm-185.84-235C334.17,180.61,409.78,118,500,118s165.9,62.62,185.84,146.79Z"/></svg>